<svg width="954" height="339" viewBox="0 0 954 339" fill="none" xmlns="http://www.w3.org/2000/svg">
<g clip-path="url(#clip0_531_48)">
<g clip-path="url(#clip1_531_48)">
<path d="M853.351 84.0686L775.32 100.773L775.286 120.634L853.318 103.929L853.351 84.0686Z" fill="white"/>
<path d="M378.868 240.501L249.006 268.279L248.972 288.141L378.835 260.362L378.868 240.501Z" fill="white"/>
<path d="M437.453 228.778L403.377 236.007L403.343 255.868L437.419 248.638L437.453 228.778Z" fill="white"/>
<path d="M135.461 236.873L97.0943 245.027L97.0601 264.888L135.427 256.734L135.461 236.873Z" fill="white"/>
<path d="M423.133 274.732L350.923 289.864L350.889 309.726L423.1 294.592L423.133 274.732Z" fill="white"/>
<path d="M497.126 266.862L474.029 271.798L474.034 252.206L497.13 247.272L497.134 234.88L474.037 239.815L474.041 225.896L457.137 229.511L457.122 287.801L497.123 279.255L497.126 266.862Z" fill="white"/>
<path d="M457.138 225.148L474.041 221.532V221.522L497.21 216.572L497.213 204.18L457.141 212.742L457.138 225.148Z" fill="white"/>
<mask id="mask0_531_48" style="mask-type:luminance" maskUnits="userSpaceOnUse" x="78" y="-229" width="798" height="798">
<path d="M78 -229H876V569H78V-229Z" fill="white"/>
</mask>
<g mask="url(#mask0_531_48)">
<path d="M543.93 228.835C541.723 227.143 538.098 226.836 533.056 227.913L522.89 230.086C521.708 230.338 520.881 230.299 520.408 229.966C519.935 229.636 519.699 228.958 519.699 227.935L519.702 214.716C519.703 212.751 520.767 211.539 522.895 211.084L526.914 210.225C529.042 209.771 530.105 210.528 530.105 212.494L530.103 219.929L547.006 216.317L547.009 206.522C547.011 197.868 542.047 194.601 532.118 196.722L517.697 199.804C507.768 201.926 502.802 207.314 502.799 215.968L502.795 233.08C502.793 241.893 507.441 245.304 516.74 243.318L527.142 241.095C528.325 240.843 529.152 240.883 529.625 241.215C530.097 241.547 530.334 242.225 530.334 243.246L530.33 256.818C530.329 258.785 529.265 259.997 527.138 260.451L523.118 261.309C520.991 261.764 519.927 261.008 519.928 259.041L519.929 251.606L503.026 255.217L503.023 264.894C503.021 273.628 508.023 276.925 518.033 274.787L532.336 271.731C542.265 269.61 547.23 264.182 547.233 255.449L547.237 237.746C547.238 233.498 546.135 230.528 543.93 228.835Z" fill="white"/>
<path d="M570.282 188.568L553.512 192.151L553.492 267.21L570.277 263.624L570.284 239.645H570.282V188.568Z" fill="white"/>
<path d="M584.481 185.534L574.382 187.745V200.136L579.396 199.012C581.444 198.574 582.468 199.341 582.468 201.306L582.464 219.481C582.464 221.448 581.437 222.65 579.389 223.088L574.382 224.211V236.602L584.469 234.393C594.399 232.272 599.365 226.844 599.367 218.111L599.373 195.334C599.374 186.68 594.411 183.412 584.481 185.534Z" fill="white"/>
<path d="M634.502 234.561C634.501 236.529 633.476 237.73 631.427 238.167L625.753 239.38C623.626 239.834 622.563 239.079 622.563 237.111L622.575 192.737C622.575 190.771 623.638 189.559 625.766 189.104L631.441 187.893C633.489 187.455 634.513 188.221 634.513 190.186L634.502 234.561ZM636.526 174.415L620.687 177.799C610.678 179.938 605.673 185.334 605.671 193.988L605.659 242.966C605.657 251.698 610.659 254.996 620.668 252.858L636.507 249.473C646.437 247.352 651.402 241.924 651.405 233.192L651.417 184.214C651.419 175.56 646.455 172.293 636.526 174.415Z" fill="white"/>
<path d="M704.486 193.881L704.492 172.874C704.493 164.22 699.53 160.953 689.6 163.075L679.506 165.204V177.596L684.514 176.553C686.562 176.115 687.587 176.881 687.587 178.846L687.583 195.722C687.582 196.746 687.346 197.525 686.873 198.057C686.4 198.592 685.612 198.976 684.509 199.212L679.506 200.303V212.222V214.925L690.173 238.007L708.258 234.143L695.026 208.412C701.331 205.648 704.485 200.806 704.486 193.881Z" fill="white"/>
<path d="M658.611 244.751L675.397 241.165L675.404 213.076L675.413 213.074V201.155L675.406 201.157L675.412 178.497L675.413 166.106L658.63 169.692L658.611 244.751Z" fill="white"/>
<path d="M722.442 231.113L739.346 227.501L739.36 169.253L722.457 172.868L722.442 231.113Z" fill="white"/>
<path d="M708.746 171.375L722.457 168.446V168.48L739.361 164.865V164.834L753.191 161.879L753.194 149.487L708.749 158.984L708.746 171.375Z" fill="white"/>
<path d="M536.557 294.163L457.832 310.793L457.797 330.654L536.523 314.024L536.557 294.163Z" fill="white"/>
<path d="M596.495 93.3648L639.062 149.766L595.374 158.936L559.64 108.124L560.003 166.375L522.784 174.196L522.004 51.9195L559.232 44.0883L559.569 97.9027L594.827 36.6125L636.199 27.9202L596.495 93.3648ZM716.479 99.5587C714.031 103.475 710.5 106.989 705.89 110.103C701.281 113.217 696.508 115.291 691.577 116.329C686.645 117.366 682.555 117.084 679.309 115.463C676.056 113.856 674.415 110.912 674.387 106.632C674.35 101.166 676.989 96.6901 682.289 93.2082C687.597 89.7325 695.328 86.9216 705.498 84.7918L716.359 82.5076L716.479 99.5587ZM738.845 14.1212C729.233 8.01154 715.187 6.89168 696.698 10.7718C689.607 12.2626 681.786 14.9465 673.254 18.8032C664.714 22.6709 657.062 27.0864 650.305 32.0583L645.444 68.3455C653.735 60.6881 661.982 54.6353 670.207 50.1668C678.436 45.7022 686.016 42.7456 692.956 41.2844C700.194 39.7609 705.867 40.05 709.979 42.137C714.08 44.2333 716.137 47.9528 716.186 53.2536L716.206 58.5848L705.345 60.8681C692.09 63.651 680.505 67.5646 670.585 72.6036C660.665 77.6409 652.873 83.9002 647.203 91.3768C641.552 98.8511 638.749 107.461 638.815 117.206C638.852 124.298 640.515 130.302 643.787 135.239C647.057 140.176 651.744 143.585 657.858 145.478C663.969 147.369 671.1 147.464 679.272 145.748C687.13 144.1 694.165 141.105 700.389 136.773C706.618 132.427 712.018 127.042 716.603 120.612L716.688 133.454L753.907 125.632L753.398 45.4459C753.308 30.6782 748.448 20.241 738.845 14.1212ZM245.094 226.764C235.589 235.557 223.361 241.532 208.411 244.669C199.775 246.485 191.535 247.292 183.659 247.1C175.781 246.907 169.215 245.516 163.954 242.922L158.649 209.435C166.696 214.104 174.818 216.985 183.009 218.069C191.199 219.153 198.754 218.975 205.693 217.514C210.929 216.418 215.003 214.49 217.92 211.735C220.838 208.979 222.281 205.752 222.253 202.061C222.235 199.26 221.264 197.201 219.329 195.911C217.388 194.617 214.833 193.785 211.669 193.42C208.501 193.052 204.681 192.816 200.212 192.714C191.871 192.405 184.92 191.68 179.356 190.556C173.807 189.426 168.996 186.739 164.959 182.489C160.916 178.234 158.871 171.901 158.819 163.48C158.759 154.328 161.14 146.249 165.96 139.244C170.781 132.238 176.988 126.617 184.597 122.355C192.207 118.094 200.642 114.987 209.884 113.055C217.122 111.53 223.995 110.827 230.476 110.94C236.962 111.056 242.904 112.097 248.323 114.061L253.619 147.559C246.499 143.142 239.498 140.467 232.626 139.544C225.756 138.622 219.077 138.847 212.612 140.2C207.677 141.234 203.676 143.038 200.607 145.607C197.523 148.182 196.015 151.306 196.028 155.003C196.06 157.503 196.989 159.346 198.839 160.513C200.709 161.66 203.175 162.445 206.274 162.825C209.35 163.221 213.143 163.452 217.613 163.553C225.957 163.866 232.941 164.583 238.583 165.686C244.216 166.799 249.058 169.477 253.101 173.732C257.139 177.982 259.187 184.536 259.249 193.395C259.326 206.837 254.623 217.956 245.094 226.764ZM506.645 147.859L506.837 177.543L401.199 199.729L401.026 173.591L458.5 94.9842L402.223 106.8L402.032 77.1165L502.817 55.9453L502.99 82.0829L445.276 160.751L506.645 147.859ZM347.782 177.021C345.348 180.931 341.817 184.445 337.207 187.558C332.599 190.673 327.825 192.745 322.893 193.783C317.958 194.817 313.868 194.535 310.615 192.927C307.372 191.311 305.732 188.367 305.704 184.087C305.67 178.625 308.306 174.146 313.609 170.666C318.903 167.197 326.645 164.377 336.815 162.246L347.676 159.963L347.782 177.021ZM370.162 91.5763C360.55 85.4666 346.504 84.3476 328.016 88.2277C320.923 89.7169 313.102 92.4008 304.562 96.2692C296.017 100.133 288.378 104.541 281.618 109.509L276.75 145.81C285.037 138.149 293.295 132.086 301.524 127.623C309.743 123.168 317.342 120.191 324.262 118.75C331.511 117.216 337.187 117.508 341.285 119.602C345.387 121.699 347.462 125.398 347.493 130.719L347.532 136.029L336.672 138.314C323.407 141.107 311.817 145.015 301.901 150.058C291.982 155.097 284.179 161.365 278.521 168.832C272.855 176.312 270.065 184.915 270.128 194.658C270.168 201.753 271.832 207.758 275.102 212.694C278.374 217.631 283.059 221.039 289.175 222.934C295.275 224.833 302.417 224.92 310.578 223.213C318.443 221.552 325.482 218.56 331.705 214.228C337.924 209.892 343.334 204.496 347.916 198.063L348.005 210.909L385.224 203.088L384.715 122.902C384.611 108.14 379.765 97.6962 370.162 91.5763Z" fill="white"/>
</g>
</g>
</g>
<defs>
<clipPath id="clip0_531_48">
<rect width="954" height="339" fill="white"/>
</clipPath>
<clipPath id="clip1_531_48">
<rect width="798" height="798" fill="white" transform="translate(78 -229)"/>
</clipPath>
</defs>
</svg>
