<svg width="192" height="27" viewBox="0 0 192 27" fill="none" xmlns="http://www.w3.org/2000/svg">
<g clip-path="url(#clip0_530_2)">
<path d="M153.66 4C154.765 4 155.66 3.10457 155.66 2C155.66 0.89543 154.765 0 153.66 0C152.556 0 151.66 0.89543 151.66 2C151.66 3.10457 152.556 4 153.66 4Z" fill="white"/>
<path d="M55.4702 1.31006H50.4702V6.73006H47.4702V10.0001H50.4702V20.6801C50.4382 21.4391 50.5927 22.1945 50.9202 22.8801C51.1997 23.4212 51.6305 23.8694 52.1602 24.1701C52.7227 24.487 53.3404 24.694 53.9802 24.7801C54.7018 24.8884 55.4305 24.9419 56.1602 24.9401H57.6602C58.1291 24.9187 58.5964 24.872 59.0602 24.8001V21.0001C58.8191 21.0481 58.5753 21.0815 58.3302 21.1001H57.5302C56.9378 21.1692 56.3404 21.0199 55.8502 20.6801C55.5104 20.1899 55.361 19.5925 55.4302 19.0001V10.0001H59.0602V6.73006H55.4702V1.31006Z" fill="white"/>
<path d="M75.1199 9.52023C74.385 8.51674 73.4263 7.6984 72.3199 7.13023C71.0788 6.51257 69.7058 6.20706 68.3199 6.24023C67.021 6.23024 65.734 6.48899 64.5399 7.00023C63.439 7.46066 62.4442 8.1419 61.6169 9.00188C60.7896 9.86186 60.1473 10.8823 59.7299 12.0002C59.2801 13.2089 59.0596 14.4908 59.0799 15.7802C59.0695 17.0917 59.2895 18.3949 59.7299 19.6302C60.1322 20.7453 60.7584 21.7662 61.5699 22.6302C62.382 23.4824 63.3723 24.1448 64.4699 24.5702C65.6984 25.0392 67.005 25.27 68.3199 25.2502C70.1557 25.2997 71.9662 24.8132 73.5299 23.8502C75.1164 22.7269 76.2564 21.0805 76.7499 19.2002H72.3799C72.1321 19.8671 71.6625 20.4286 71.0499 20.7902C70.1644 21.332 69.1347 21.5907 68.0983 21.5318C67.0619 21.4728 66.0682 21.099 65.2499 20.4602C64.4303 19.4987 64.0052 18.2625 64.0599 17.0002H77.0599C77.1537 15.6568 77.0356 14.307 76.7099 13.0002C76.4164 11.7461 75.8759 10.563 75.1199 9.52023ZM63.9999 13.8502C64.032 13.4462 64.1091 13.0471 64.2299 12.6602C64.3745 12.1704 64.6201 11.7163 64.9508 11.3271C65.2814 10.9378 65.6899 10.6221 66.1499 10.4002C66.7751 10.1092 67.4609 9.97202 68.1499 10.0002C68.6468 9.96446 69.1455 10.0352 69.6129 10.2076C70.0802 10.3801 70.5054 10.6503 70.8599 11.0002C71.5185 11.8214 71.9403 12.8069 72.0799 13.8502H63.9999Z" fill="white"/>
<path d="M94.3201 9.52002C93.5797 8.52943 92.6217 7.72203 91.5201 7.16002C90.279 6.54235 88.906 6.23685 87.5201 6.27002C86.2298 6.2507 84.9495 6.49927 83.7601 7.00002C82.6684 7.46606 81.6833 8.14983 80.8649 9.00952C80.0464 9.86922 79.4119 10.8868 79.0001 12C78.5615 13.2111 78.348 14.4922 78.3701 15.78C78.3426 17.0894 78.5492 18.3932 78.9801 19.63C79.3824 20.745 80.0086 21.766 80.8201 22.63C81.6323 23.4822 82.6225 24.1446 83.7201 24.57C84.9486 25.039 86.2552 25.2697 87.5701 25.25C89.4159 25.3042 91.2373 24.8176 92.8101 23.85C94.3854 22.7216 95.5144 21.0759 96.0001 19.2H91.6101C91.3623 19.8669 90.8927 20.4283 90.2801 20.79C89.3946 21.3318 88.3649 21.5905 87.3285 21.5316C86.2921 21.4726 85.2984 21.0988 84.4801 20.46C83.6713 19.494 83.257 18.2583 83.3201 17H96.3201C96.3938 15.6534 96.2555 14.3036 95.9101 13C95.6167 11.7459 95.0761 10.5628 94.3201 9.52002ZM83.2301 13.85C83.2622 13.446 83.3393 13.0469 83.4601 12.66C83.6047 12.1702 83.8503 11.7161 84.181 11.3269C84.5116 10.9376 84.9201 10.6219 85.3801 10.4C86.0053 10.109 86.6911 9.97181 87.3801 10C87.877 9.96425 88.3757 10.035 88.8431 10.2074C89.3104 10.3799 89.7356 10.6501 90.0901 11C90.7518 11.8204 91.1771 12.8058 91.3201 13.85H83.2301Z" fill="white"/>
<path d="M102.5 1.20996H97.5V24.8H102.5V1.20996Z" fill="white"/>
<path d="M136 9.51984C135.248 8.53638 134.289 7.73062 133.19 7.15984C131.999 6.53827 130.673 6.22214 129.33 6.23984C128.122 6.21633 126.924 6.45957 125.822 6.9522C124.719 7.44483 123.738 8.17473 122.95 9.08984C122.182 9.97023 121.588 10.9882 121.2 12.0898C120.788 13.2623 120.582 14.4971 120.59 15.7398C120.577 17.0459 120.772 18.3457 121.17 19.5898C121.524 20.6985 122.106 21.7206 122.88 22.5898C123.649 23.4522 124.598 24.135 125.66 24.5898C126.86 25.0754 128.146 25.3135 129.44 25.2898C130.391 25.2923 131.337 25.1576 132.25 24.8898C133.12 24.6305 133.941 24.2283 134.68 23.6998C136.178 22.61 137.219 21.0029 137.6 19.1898H133.82C133.549 20.066 133.011 20.8354 132.28 21.3898C131.445 21.9275 130.462 22.1898 129.47 22.1398C128.723 22.1603 127.98 22.0098 127.3 21.6998C126.718 21.4276 126.206 21.0277 125.8 20.5298C125.397 20.0219 125.095 19.4414 124.91 18.8198C124.711 18.1719 124.609 17.4978 124.61 16.8198H137.89C138.059 15.5054 137.971 14.1706 137.63 12.8898C137.313 11.6703 136.759 10.5252 136 9.51984ZM124.58 14.1198C124.612 13.4858 124.758 12.8626 125.01 12.2798C125.25 11.7177 125.589 11.203 126.01 10.7598C126.428 10.3312 126.928 9.99114 127.48 9.75984C128.065 9.50957 128.694 9.3803 129.33 9.37984C129.966 9.37043 130.595 9.50728 131.17 9.77984C131.697 10.0198 132.172 10.3594 132.57 10.7798C132.961 11.2283 133.27 11.743 133.48 12.2998C133.703 12.8834 133.837 13.4967 133.88 14.1198H124.58Z" fill="white"/>
<path d="M155.64 6.72998H151.64V24.8H155.64V6.72998Z" fill="white"/>
<path d="M118 15.6802C117.429 15.2728 116.798 14.9557 116.13 14.7402C115.433 14.5009 114.721 14.3039 114 14.1502L111.83 13.7002C111.194 13.5809 110.569 13.4103 109.96 13.1902C109.473 13.0279 109.021 12.7733 108.63 12.4402C108.462 12.2921 108.329 12.1084 108.241 11.9026C108.153 11.6968 108.112 11.474 108.12 11.2502C108.106 11.0683 108.129 10.8854 108.19 10.7132C108.25 10.541 108.345 10.3833 108.47 10.2502C108.713 10.0109 109.007 9.82971 109.33 9.7202C109.678 9.58906 110.041 9.50172 110.41 9.4602C110.742 9.41698 111.076 9.3936 111.41 9.3902C112.224 9.37189 113.031 9.53947 113.77 9.8802C114.13 10.0675 114.438 10.3407 114.666 10.6757C114.895 11.0107 115.037 11.397 115.08 11.8002H119.24C119.141 10.8845 118.829 10.0046 118.33 9.2302C117.89 8.53837 117.307 7.94856 116.62 7.5002C115.912 7.03961 115.131 6.70156 114.31 6.5002C113.434 6.30056 112.539 6.19993 111.64 6.2002C110.778 6.20025 109.918 6.2806 109.07 6.4402C108.212 6.58905 107.384 6.87969 106.62 7.3002C105.899 7.69191 105.277 8.24247 104.8 8.9102C104.301 9.63094 104.048 10.494 104.08 11.3702C104.051 12.1624 104.22 12.9493 104.57 13.6602C104.883 14.2618 105.331 14.7823 105.88 15.1802C106.448 15.5816 107.071 15.8982 107.73 16.1202C108.435 16.3565 109.153 16.5534 109.88 16.7102L112.01 17.1602C112.646 17.2795 113.272 17.4501 113.88 17.6702C114.379 17.8399 114.838 18.1086 115.23 18.4602C115.403 18.6224 115.541 18.8174 115.637 19.0338C115.733 19.2501 115.785 19.4835 115.79 19.7202C115.832 20.1658 115.699 20.6103 115.42 20.9602C115.153 21.2808 114.809 21.5285 114.42 21.6802C113.987 21.8498 113.533 21.9607 113.07 22.0102C112.646 22.0704 112.218 22.1005 111.79 22.1002C110.823 22.1266 109.868 21.8843 109.03 21.4002C108.652 21.1526 108.337 20.8204 108.11 20.4299C107.882 20.0393 107.749 19.6012 107.72 19.1502H103.72C103.741 20.05 103.96 20.9341 104.36 21.7402C104.758 22.5279 105.333 23.2126 106.04 23.7402C106.798 24.2869 107.653 24.684 108.56 24.9102C109.593 25.1718 110.655 25.2995 111.72 25.2902C112.672 25.292 113.621 25.188 114.55 24.9802C115.465 24.7877 116.342 24.4501 117.15 23.9802C117.92 23.5304 118.574 22.9072 119.06 22.1602C119.567 21.3421 119.821 20.3923 119.79 19.4302C119.83 18.6534 119.671 17.8792 119.33 17.1802C119.001 16.5896 118.547 16.0778 118 15.6802Z" fill="white"/>
<path d="M172.56 9.48984C171.808 8.50638 170.848 7.70062 169.75 7.12984C168.566 6.52232 167.25 6.2166 165.92 6.23984C164.712 6.21633 163.514 6.45957 162.412 6.9522C161.309 7.44483 160.328 8.17473 159.54 9.08984C158.772 9.97023 158.178 10.9882 157.79 12.0898C157.378 13.2623 157.172 14.4971 157.18 15.7398C157.166 17.0459 157.362 18.3457 157.76 19.5898C158.114 20.6985 158.696 21.7206 159.47 22.5898C160.239 23.4522 161.188 24.135 162.25 24.5898C163.45 25.0754 164.736 25.3135 166.03 25.2898C166.981 25.2923 167.927 25.1576 168.84 24.8898C169.71 24.6305 170.531 24.2283 171.27 23.6998C172.768 22.61 173.809 21.0029 174.19 19.1898H170.41C170.13 20.0694 169.581 20.8389 168.84 21.3898C168.005 21.9275 167.022 22.1898 166.03 22.1398C165.282 22.1603 164.54 22.0098 163.86 21.6998C163.278 21.4276 162.766 21.0277 162.36 20.5298C161.957 20.0219 161.655 19.4414 161.47 18.8198C161.27 18.1719 161.169 17.4978 161.17 16.8198H174.45C174.624 15.4823 174.536 14.1236 174.19 12.8198C173.868 11.6144 173.315 10.4832 172.56 9.48984ZM161.22 14.1298C161.237 13.4807 161.373 12.8402 161.62 12.2398C161.86 11.6777 162.199 11.163 162.62 10.7198C163.038 10.2912 163.538 9.95114 164.09 9.71984C164.697 9.48055 165.347 9.36824 166 9.38984C166.636 9.38043 167.265 9.51728 167.84 9.78984C168.367 10.0298 168.842 10.3694 169.24 10.7898C169.631 11.2383 169.939 11.753 170.15 12.3098C170.373 12.8934 170.507 13.5067 170.55 14.1298H161.22Z" fill="white"/>
<path d="M190.91 17.1799C190.581 16.5894 190.127 16.0775 189.58 15.6799C189.008 15.2725 188.378 14.9555 187.71 14.7399C187.012 14.5006 186.301 14.3036 185.58 14.1499L183.41 13.6999C182.774 13.5806 182.148 13.4101 181.54 13.1899C181.052 13.0276 180.601 12.773 180.21 12.4399C180.042 12.2918 179.909 12.1082 179.821 11.9024C179.733 11.6965 179.691 11.4737 179.7 11.2499C179.685 11.0681 179.709 10.8852 179.769 10.713C179.83 10.5408 179.925 10.383 180.05 10.2499C180.29 9.9995 180.584 9.80785 180.91 9.68992C181.261 9.55798 181.627 9.47063 182 9.42992C182.332 9.3867 182.665 9.36333 183 9.35992C183.814 9.34161 184.621 9.5092 185.36 9.84992C185.72 10.0372 186.027 10.3105 186.256 10.6454C186.484 10.9804 186.627 11.3667 186.67 11.7699H190.83C190.752 10.8613 190.468 9.98238 190 9.19992C189.56 8.5081 188.977 7.91828 188.29 7.46992C187.581 7.00934 186.801 6.67128 185.98 6.46992C185.104 6.27029 184.208 6.16966 183.31 6.16992C182.448 6.16998 181.587 6.25033 180.74 6.40992C179.881 6.55878 179.053 6.84941 178.29 7.26992C177.569 7.66164 176.947 8.21219 176.47 8.87992C175.971 9.60066 175.718 10.4637 175.75 11.3399C175.721 12.1321 175.889 12.919 176.24 13.6299C176.552 14.2315 177.001 14.752 177.55 15.1499C178.118 15.5513 178.741 15.868 179.4 16.0899C180.105 16.3262 180.823 16.5232 181.55 16.6799L183.68 17.1299C184.316 17.2492 184.941 17.4198 185.55 17.6399C186.048 17.8096 186.508 18.0783 186.9 18.4299C187.072 18.5921 187.211 18.7871 187.307 19.0035C187.403 19.2199 187.455 19.4532 187.46 19.6899C187.502 20.1356 187.369 20.58 187.09 20.9299C186.823 21.2506 186.479 21.4983 186.09 21.6499C185.657 21.8195 185.203 21.9305 184.74 21.9799C184.316 22.0401 183.888 22.0702 183.46 22.0699C182.493 22.0963 181.537 21.854 180.7 21.3699C180.326 21.1316 180.011 20.8115 179.779 20.4339C179.547 20.0563 179.404 19.631 179.36 19.1899H175.36C175.381 20.0897 175.6 20.9738 176 21.7799C176.398 22.5676 176.973 23.2523 177.68 23.7799C178.422 24.3398 179.263 24.7537 180.16 24.9999C181.193 25.2615 182.255 25.3892 183.32 25.3799C184.272 25.3817 185.221 25.2778 186.15 25.0699C187.064 24.8774 187.942 24.5398 188.75 24.0699C189.519 23.6201 190.173 22.9969 190.66 22.2499C191.167 21.4318 191.421 20.482 191.39 19.5199C191.441 18.7111 191.275 17.9033 190.91 17.1799Z" fill="white"/>
<path d="M45.6902 15.4599C45.1268 15.0598 44.5066 14.7463 43.8502 14.5299C43.1602 14.2999 42.4502 14.0999 41.7402 13.9399L39.6802 13.4899C39.0716 13.3686 38.4705 13.2117 37.8802 13.0199C37.4127 12.8803 36.9776 12.6492 36.6002 12.3399C36.4423 12.2086 36.3162 12.0432 36.2313 11.8561C36.1464 11.6691 36.1051 11.4652 36.1102 11.2599C36.0902 10.9388 36.19 10.6217 36.3902 10.3699C36.5729 10.1481 36.8061 9.97319 37.0702 9.85991C37.3659 9.73392 37.6799 9.65627 38.0002 9.62991C38.3002 9.62991 38.6102 9.57991 38.9102 9.57991C39.7099 9.56269 40.5021 9.73759 41.2202 10.0899C41.5354 10.2659 41.7996 10.5205 41.9871 10.8289C42.1746 11.1374 42.2791 11.4891 42.2902 11.8499H47.0002C46.9314 10.921 46.6398 10.0223 46.1502 9.22991C45.6917 8.51149 45.0763 7.90633 44.3502 7.45991C43.592 7.00413 42.7592 6.68591 41.8902 6.51991C40.9389 6.32904 39.9706 6.23523 39.0002 6.23991C38.0375 6.23668 37.0767 6.32373 36.1302 6.49991C35.2451 6.65943 34.3931 6.96707 33.6102 7.40991C32.8711 7.8394 32.2521 8.44812 31.8102 9.17991C31.3365 10.0422 31.1049 11.0167 31.1402 11.9999C31.1205 12.6985 31.2897 13.3895 31.6302 13.9999C31.952 14.5448 32.393 15.0098 32.9202 15.3599C33.4879 15.738 34.1078 16.0311 34.7602 16.2299C35.4302 16.4499 36.1302 16.6399 36.8702 16.8099C38.2737 17.1067 39.654 17.5044 41.0002 17.9999C41.3985 18.0778 41.76 18.2844 42.0293 18.588C42.2985 18.8916 42.4605 19.2752 42.4902 19.6799C42.5099 20.0706 42.401 20.457 42.1802 20.7799C41.9719 21.0688 41.7021 21.3078 41.3902 21.4799C41.0759 21.6519 40.7394 21.7798 40.3902 21.8599C40.029 21.9398 39.6602 21.9801 39.2902 21.9799C38.8116 21.9838 38.3344 21.9267 37.8702 21.8099C37.4389 21.7008 37.0295 21.5181 36.6602 21.2699C36.3096 21.0218 36.0163 20.7012 35.8002 20.3299C35.6099 19.9857 35.5005 19.6027 35.4802 19.2099H30.7402C30.7651 20.1581 31.0271 21.085 31.5022 21.906C31.9773 22.727 32.6505 23.4159 33.4602 23.9099C34.2832 24.4004 35.1875 24.7391 36.1302 24.9099C38.1365 25.3167 40.204 25.3167 42.2102 24.9099C43.1435 24.7391 44.038 24.4002 44.8502 23.9099C45.6849 23.3992 46.3679 22.6748 46.8285 21.8115C47.2891 20.9482 47.5107 19.9776 47.4702 18.9999C47.4954 18.2681 47.3336 17.5419 47.0002 16.8899C46.6722 16.3241 46.2252 15.8362 45.6902 15.4599Z" fill="white"/>
<path d="M143.05 8.9201H142.93V6.7701H139.19V24.8401H143.19V14.5001C143.19 11.2501 146.1 10.3201 149.77 10.3201V6.7401C148 6.7401 145.4 6.6101 143.05 8.9201Z" fill="white"/>
<path d="M17.72 4.91V2C17.72 1.46957 17.5093 0.960859 17.1342 0.585786C16.7591 0.210714 16.2504 0 15.72 0C15.1896 0 14.6809 0.210714 14.3058 0.585786C13.9307 0.960859 13.72 1.46957 13.72 2V4.91C11.5216 5.32015 9.49868 6.38597 7.91732 7.96732C6.33597 9.54868 5.27015 11.5716 4.86 13.77H2C1.46957 13.77 0.960859 13.9807 0.585786 14.3558C0.210714 14.7309 0 15.2396 0 15.77C0 16.3004 0.210714 16.8091 0.585786 17.1842C0.960859 17.5593 1.46957 17.77 2 17.77H4.81C5.17024 19.7563 6.06679 21.6064 7.40265 23.1199C8.73851 24.6334 10.4628 25.7529 12.389 26.3571C14.3152 26.9613 16.37 27.0273 18.331 26.5479C20.292 26.0686 22.0846 25.0621 23.5148 23.6374C24.945 22.2127 25.9584 20.4241 26.4454 18.4649C26.9324 16.5058 26.8744 14.4508 26.2776 12.5223C25.6809 10.5937 24.5681 8.86511 23.0598 7.52339C21.5515 6.18167 19.7049 5.27795 17.72 4.91ZM15.72 22.82C14.3355 22.82 12.9822 22.4095 11.831 21.6403C10.6799 20.8711 9.78266 19.7779 9.25284 18.4988C8.72303 17.2197 8.58441 15.8122 8.8545 14.4544C9.1246 13.0965 9.79128 11.8492 10.7703 10.8703C11.7492 9.89129 12.9965 9.2246 14.3544 8.9545C15.7122 8.68441 17.1197 8.82303 18.3988 9.35284C19.6779 9.88266 20.7711 10.7799 21.5403 11.931C22.3095 13.0822 22.72 14.4355 22.72 15.82C22.72 17.6765 21.9825 19.457 20.6697 20.7697C19.357 22.0825 17.5765 22.82 15.72 22.82Z" fill="white"/>
<path d="M15.6698 11.46C14.8086 11.456 13.9656 11.7078 13.2477 12.1834C12.5297 12.6589 11.969 13.3369 11.6367 14.1314C11.3044 14.9259 11.2154 15.8012 11.381 16.6463C11.5465 17.4915 11.9593 18.2684 12.5668 18.8788C13.1744 19.4891 13.9494 19.9054 14.7938 20.0749C15.6381 20.2444 16.5138 20.1594 17.3098 19.8308C18.1059 19.5021 18.7864 18.9446 19.2653 18.2288C19.7442 17.513 19.9998 16.6712 19.9998 15.81C19.9998 14.658 19.5429 13.5531 18.7293 12.7376C17.9156 11.9221 16.8118 11.4627 15.6598 11.46H15.6698ZM15.6198 17.11C15.3627 17.11 15.1113 17.0338 14.8976 16.8909C14.6838 16.7481 14.5172 16.545 14.4188 16.3075C14.3204 16.07 14.2946 15.8086 14.3448 15.5564C14.3949 15.3042 14.5188 15.0726 14.7006 14.8908C14.8824 14.709 15.114 14.5851 15.3662 14.535C15.6184 14.4848 15.8798 14.5106 16.1173 14.609C16.3548 14.7074 16.5579 14.874 16.7007 15.0878C16.8436 15.3015 16.9198 15.5529 16.9198 15.81C16.9172 16.154 16.7794 16.4831 16.5362 16.7264C16.2929 16.9696 15.9638 17.1074 15.6198 17.11Z" fill="white"/>
<path d="M5.24023 7.58984C6.3448 7.58984 7.24023 6.69441 7.24023 5.58984C7.24023 4.48527 6.3448 3.58984 5.24023 3.58984C4.13566 3.58984 3.24023 4.48527 3.24023 5.58984C3.24023 6.69441 4.13566 7.58984 5.24023 7.58984Z" fill="white"/>
</g>
<defs>
<clipPath id="clip0_530_2">
<rect width="191.4" height="26.87" fill="white"/>
</clipPath>
</defs>
</svg>
